<svg id="Layer_1" data-name="Layer 1" xmlns="http://www.w3.org/2000/svg" viewBox="0 0 100 100"><path d="M47.8,29,42,25.6a4.5,4.5,0,0,0-6.1,1.6h0L11.6,70.3a4.5,4.5,0,0,0,1.7,6.1l5.8,3.4a4.3,4.3,0,0,0,2.2.6,4.4,4.4,0,0,0,3.8-2.3L49.4,35A4.4,4.4,0,0,0,47.8,29Z" style="fill:#2196f3"/><path d="M16.7,83h0l-5.9-3.4a3.9,3.9,0,0,0-3.5-.2,3.7,3.7,0,0,0-1.9,3l-1,8.8a3.2,3.2,0,0,0,1.4,3.4,3.7,3.7,0,0,0,1.5.4,4,4,0,0,0,2.1-.7l7.5-5.2a3.5,3.5,0,0,0,1.2-4.8A4.3,4.3,0,0,0,16.7,83Z" style="fill:#2196f3"/><path d="M82.2,79.4a7.8,7.8,0,0,0,4.4-4.3,5.2,5.2,0,0,0-.4-4.2l-1.7-3.3C49.3,0,47.1,1.1,44.5,2.5A2.8,2.8,0,0,0,43,5.2c0,7.6,28.3,72.1,32.6,74.3a6.8,6.8,0,0,0,6.2.1Z" style="fill:#2196f3"/><path d="M91.6,80.9a7,7,0,0,0-7.7.5l-.5.4a6.3,6.3,0,0,0-.8,8.9h.1A13.9,13.9,0,0,0,89,95.2l2.3,1.1a2.3,2.3,0,0,0,2.1,1.6h.2a2.2,2.2,0,0,0,1.9-2C95.7,94,96.4,84,91.6,80.9Z" style="fill:#2196f3"/><path d="M51.9,42.6a2.2,2.2,0,0,0-3.1-.8,1.4,1.4,0,0,0-.7.8L39.4,59.9a2.3,2.3,0,0,0,.9,3l1,.2H58.7a2.1,2.1,0,0,0,1.9-3.2Z" style="fill:#2196f3"/><path d="M10.5,62.1,21.4,44.7a2.2,2.2,0,0,0-.7-3,2,2,0,0,0-1.1-.3H2.2A2.1,2.1,0,0,0,0,43.5V60.9a2.2,2.2,0,0,0,2.2,2.2H8.7A2.2,2.2,0,0,0,10.5,62.1Z" style="fill:#2196f3"/><path d="M97.8,41.4H80.4a2.1,2.1,0,0,0-2.1,2.1,1.6,1.6,0,0,0,.2,1l8.7,17.4a2.2,2.2,0,0,0,1.9,1.2h8.7a2.2,2.2,0,0,0,2.2-2.2V43.5A2.1,2.1,0,0,0,97.8,41.4Z" style="fill:#2196f3"/><path d="M21.3,80.4a4.3,4.3,0,0,1-2.2-.6l-5.8-3.4a4.5,4.5,0,0,1-1.6-6.1L35.9,27.2a4.4,4.4,0,0,1,6-1.6H42L47.8,29a4.4,4.4,0,0,1,1.6,6L25.1,78.1a4.4,4.4,0,0,1-3.8,2.3Zm18.5-51L15.4,72.5,21.3,76,45.6,32.9h0v-.2Z"/><path d="M7.3,95a3.7,3.7,0,0,1-1.5-.4,3.2,3.2,0,0,1-1.4-3.4l1-8.8a3.7,3.7,0,0,1,1.9-3,3.9,3.9,0,0,1,3.5.2L16.7,83h0a3.5,3.5,0,0,1,1.5,4.7,4.4,4.4,0,0,1-1.3,1.4L9.4,94.3A4,4,0,0,1,7.3,95ZM9.6,83.9,9,89.2l4.4-3Zm4.9,2.9h0l1.1-1.9Z"/><path d="M78.9,80.4a9,9,0,0,1-3.3-.9C71.3,77.3,43,12.8,43,5.3a2.8,2.8,0,0,1,1.5-2.8c2.6-1.4,4.8-2.5,40,65.1l1.7,3.3h0a5.2,5.2,0,0,1,.4,4.2,7.8,7.8,0,0,1-4.4,4.3l-.4.2A7.4,7.4,0,0,1,78.9,80.4Zm-1-4.7c.9.5,1.1.4,2.1-.1l.6-.2a3.9,3.9,0,0,0,1.9-1.7.8.8,0,0,0-.1-.7h0l-1.7-3.4C63.1,36,54.1,20.1,49.4,12.7c6.3,17.6,25.1,58.8,28.5,63Z"/><path d="M93.4,97.9a2.1,2.1,0,0,1-2.1-1.6L89,95.2a13.7,13.7,0,0,1-6.3-4.3,6.3,6.3,0,0,1,.5-8.9h.2a1,1,0,0,1,.5-.4,7.2,7.2,0,0,1,7.7-.6c4.8,3.1,4.1,13.1,3.9,15a2.1,2.1,0,0,1-1.9,2ZM86.3,85.1c-.8.8-1.3,1.4,0,3.2a9.2,9.2,0,0,0,4.4,2.9l.6.3c-.1-3.1-.7-6.1-2-6.9S87.3,84.6,86.3,85.1Z"/><path d="M58.7,63.1H41.3a2.1,2.1,0,0,1-1.9-3.2l8.7-17.3a2.2,2.2,0,0,1,3.1-.8,1.4,1.4,0,0,1,.7.8l8.7,17.3a2.3,2.3,0,0,1-.9,3ZM44.8,58.7H55.2L50,48.4Z"/><path d="M8.7,63.1H2.2A2.2,2.2,0,0,1,0,60.9V43.5a2.1,2.1,0,0,1,2.2-2.1H19.6a2.1,2.1,0,0,1,2.1,2.1,2.7,2.7,0,0,1-.3,1.2L10.5,62.1A2.2,2.2,0,0,1,8.7,63.1ZM4.3,58.7H7.5l8.2-13H4.3Z"/><path d="M97.8,63.1H89.1a2.2,2.2,0,0,1-1.9-1.2L78.5,44.5a2.2,2.2,0,0,1,1-2.9,1.5,1.5,0,0,1,.9-.2H97.8a2.1,2.1,0,0,1,2.2,2.1V60.9A2.2,2.2,0,0,1,97.8,63.1Zm-7.3-4.4h5.2v-13H84Z"/></svg>