<svg xmlns="http://www.w3.org/2000/svg" viewBox="0 0 98 96.1"><g id="Layer_2" data-name="Layer 2"><g id="Layer_1-2" data-name="Layer 1"><path d="M98,57.7c-.3.1-.2.5-.3.7A6.4,6.4,0,0,1,90,62.5a6.3,6.3,0,0,1-4.4-7.4,15.6,15.6,0,0,1,3.8-7.3c1.6-1.7,3-1.7,4.6.1a16,16,0,0,1,3.8,7c0,.1,0,.3.2.3Zm-6.9-7.4a12.4,12.4,0,0,0-2.7,5.5,3,3,0,0,0,1.3,3.3A3.4,3.4,0,0,0,95,55.6a16.6,16.6,0,0,0-2.7-5.5C91.8,49.5,91.4,49.6,91.1,50.3Z" style="fill:#040303"/><path d="M11.4,71.6c-.5-1.2-.4-1.6.6-2.4L26.7,57.1c1.5-1.3,1.6-2.1.2-3.5l-5.7-5.7a7.6,7.6,0,0,1,0-11.4L39.5,18.3a1.9,1.9,0,0,1,1.5-.9,1.7,1.7,0,0,0,.8-.6C47,11.6,52.2,6.5,57.3,1.2,59.1-.6,62-.6,63,2.7l.4,1.6A5.2,5.2,0,0,0,67.8,9a9.9,9.9,0,0,1,4.9,2.2,8.6,8.6,0,0,1,2.5,4.9A5.4,5.4,0,0,0,80.1,21a8,8,0,0,1,5,2.7,8.4,8.4,0,0,1,2,4.4,5.4,5.4,0,0,0,4.6,4.7,8.6,8.6,0,0,1,2.3.6c2.4,1,2.9,3.4,1.1,5.2l-9.8,9.9c-1.6,1.6-3.2,3.1-4.8,4.8a5.2,5.2,0,0,0-2,2.6c0,.3-.4.5-.6.8L59.5,75a7.5,7.5,0,0,1-11.1.1l-6-6c-1.2-1.2-2.1-1.2-3.2.2L20.7,91.8A11.7,11.7,0,0,1,.9,88.9,11.2,11.2,0,0,1,3.2,76.6a21.4,21.4,0,0,1,3.2-2.8,1.3,1.3,0,0,1,2,.1c.6,1.1.5,1.5-.5,2.3a38.5,38.5,0,0,0-3,2.7,8.5,8.5,0,0,0,.7,11.7,2.7,2.7,0,0,0,.7.8,8.7,8.7,0,0,0,12-1.3c2.4-2.8,4.7-5.6,7-8.5L38,66.3c2.6-1.5,4.4-1.2,6.6.9L49,71.5l1.2,1.3c2.4,2.4,5.1,2.4,7.5,0l8.1-8.1c.6-.6,1.5-1.1,1.5-1.7s-1-1.1-1.5-1.7a.2.2,0,0,0-.2-.2c-.8-.9-.9-1.3-.3-2.4a2.8,2.8,0,0,1,1.3-.4A8.4,8.4,0,0,1,69,60.5c.4.4.7.4,1.1-.1s3.1-3.2,4.7-4.7.5-.8,0-1.4l-24-23.9-9.1-9.2c-.5-.4-.7-.5-1.2,0a27.3,27.3,0,0,1-2.3,2.5l-2.3,2.2c-.6.5-.6.8,0,1.4L62.3,53.6a1.7,1.7,0,0,1,.4,2.4c-1,.7-1.5.6-2.5-.3-8.7-8.8-17.5-17.5-26.3-26.3-.8-.8-.8-.8-1.5.1l-9.3,9.2a4.7,4.7,0,0,0,.1,7.1L29,51.6c2.5,2.5,2.4,5.4-.4,7.7l-14.7,12C13.1,72,12.3,72.3,11.4,71.6ZM55.3,7.4,53.5,9.2a.5.5,0,0,0-.3.6c.5,3,1.6,5.6,4.3,7.2a1.7,1.7,0,0,1,.9,2.1c-.8,1-1.4,1-2.4.4a13.2,13.2,0,0,1-2.2-1.8,10.5,10.5,0,0,1-3-5.8l-7,6.9c-.3.4,0,.5.2.7l5.9,6c.4.3.6.4,1,0l2.6-2.6a1.4,1.4,0,0,1,2.1-.2c.7.6.6,1.4-.1,2.2a31.9,31.9,0,0,1-2.6,2.6c-.4.3-.4.5,0,.9l6,6c.3.4.5.3.8,0l2.7-2.7a1.4,1.4,0,0,1,2.1-.1,1.5,1.5,0,0,1-.1,2.2,30.7,30.7,0,0,1-2.6,2.5c-.3.4-.4.6,0,1l5.9,6c.4.3.6.4.9,0s1.7-1.8,2.6-2.6a1.5,1.5,0,0,1,2.2-.2c.7.6.6,1.4-.2,2.2l-2.6,2.7c-.3.2-.3.4,0,.7l3.7,3.6,2.4,2.5c.3.4.5.3.7,0,2-1.9,4-3.9,5.9-5.9a.5.5,0,0,0,.3-.6,17.6,17.6,0,0,0-1.2-3.9,8.5,8.5,0,0,0-6.2-4.5,12.4,12.4,0,0,1-6.7-3.9,11.8,11.8,0,0,1-2.6-5.8A8.5,8.5,0,0,0,63,22.1a1.6,1.6,0,0,1-.9-2c.9-1,1.4-1.1,2.5-.4a12.2,12.2,0,0,1,5.3,7.9,8.2,8.2,0,0,0,6.8,6.8l1.6.5c2.7.7,4.6,2.6,6.3,4.7A17.4,17.4,0,0,1,86,43.4c.4,0,.5-.3.7-.4l5.1-5.2c.5-.5,1.5-1,1.3-1.5s-1.2-.6-1.9-.7a8,8,0,0,1-6.9-6.8A5.6,5.6,0,0,0,79,23.7a8,8,0,0,1-4.4-2.4,8.2,8.2,0,0,1-2.2-4.7A5.3,5.3,0,0,0,67.8,12l-1.1-.3a7.8,7.8,0,0,1-6-6.2,7.9,7.9,0,0,0-.8-2.6Z" style="fill:#040303"/><path d="M5.6,90.6a8.5,8.5,0,0,1-.7-11.7,38.5,38.5,0,0,1,3-2.7c1-.8,1.1-1.2.5-2.3,1.1-.6,1.9-1.7,3-2.3s1.7.4,2.5-.3l14.7-12c2.8-2.3,2.9-5.2.4-7.7l-5.8-5.8a4.7,4.7,0,0,1-.1-7.1l9.3-9.2c.1.4.5.7.8,1L52.7,50.1a12.1,12.1,0,0,1,3.6,7.8c.5,5.7-2.3,9.8-6.5,13.2a1.2,1.2,0,0,1-.8.4l-4.4-4.3c-2.2-2.1-4-2.4-6.6-.9a12.6,12.6,0,0,1-2.4-2.2,3.3,3.3,0,0,0-4.8,0l-2,2.5c-2,2.4-4,4.7-5.9,7.1s-4.3,5.3-6.4,7.9a1,1,0,0,1-.8.4,5.3,5.3,0,0,0-7.8-1.1,5.2,5.2,0,0,0,1,8.4A4.6,4.6,0,0,1,5.6,90.6Z" style="fill:#d1927f"/><path d="M89.7,59.1a3,3,0,0,1-1.3-3.3,12.4,12.4,0,0,1,2.7-5.5h.3c1.1,1.8,2,5,.4,7.1A11.2,11.2,0,0,1,89.7,59.1Z" style="fill:#e77d85"/><path d="M89.7,59.1a11.2,11.2,0,0,0,2.1-1.7c1.6-2.1.7-5.3-.4-7.1h-.3c.3-.7.7-.8,1.2-.2A16.6,16.6,0,0,1,95,55.6a3.4,3.4,0,0,1-5.3,3.5Z" style="fill:#e1626c"/><path d="M74.3,49.7l-3.7-3.6c-.3-.3-.3-.5,0-.7l2.6-2.7c.8-.8.9-1.6.2-2.2a1.5,1.5,0,0,0-2.2.2c-.9.8-1.7,1.7-2.6,2.6s-.5.3-.9,0l-5.9-6c-.4-.4-.3-.6,0-1a30.7,30.7,0,0,0,2.6-2.5,1.5,1.5,0,0,0,.1-2.2,1.4,1.4,0,0,0-2.1.1l-2.7,2.7c-.3.3-.5.4-.8,0l-6-6c-.4-.4-.4-.6,0-.9a31.9,31.9,0,0,0,2.6-2.6c.7-.8.8-1.6.1-2.2a1.4,1.4,0,0,0-2.1.2l-2.6,2.6c-.4.4-.6.3-1,0l-5.9-6c-.2-.2-.5-.3-.2-.7l7-6.9a10.5,10.5,0,0,0,3,5.8A13.2,13.2,0,0,0,56,19.5c1,.6,1.6.6,2.4-.4l3.7,1a1.6,1.6,0,0,0,.9,2,8.5,8.5,0,0,1,3.9,5.5,11.8,11.8,0,0,0,2.6,5.8,12.4,12.4,0,0,0,6.7,3.9,8.5,8.5,0,0,1,6.2,4.5,7.7,7.7,0,0,0-1.6,1.5C78.6,45.4,76.5,47.7,74.3,49.7Z" style="fill:#fdf9ce"/><path d="M5.6,90.6a4.6,4.6,0,0,0,3.3-1.3,5.3,5.3,0,0,0,3.7.5A5.2,5.2,0,0,0,15.7,82a1,1,0,0,0,.8-.4c2.1-2.6,4.2-5.3,6.4-7.9s3.9-4.7,5.9-7.1l2-2.5a3.3,3.3,0,0,1,4.8,0A12.6,12.6,0,0,0,38,66.3L25.3,81.6c-2.3,2.9-4.6,5.7-7,8.5a8.7,8.7,0,0,1-12,1.3A2.7,2.7,0,0,1,5.6,90.6Z" style="fill:#c77d66"/><path d="M49,71.5a1.2,1.2,0,0,0,.8-.4c4.2-3.4,7-7.5,6.5-13.2a12.1,12.1,0,0,0-3.6-7.8L33.2,30.5c-.3-.3-.7-.6-.8-1s.7-.9,1.5-.1c8.8,8.8,17.6,17.5,26.3,26.3,1,.9,1.5,1,2.5.3a22,22,0,0,0,2.6,2.7c-.6,1.1-.5,1.5.3,2.4a.2.2,0,0,1,.2.2c.5.6,1.5,1,1.5,1.7s-.9,1.1-1.5,1.7l-8.1,8.1c-2.4,2.4-5.1,2.4-7.5,0Z" style="fill:#c67c65"/><path d="M62.1,20.1l-3.7-1a1.7,1.7,0,0,0-.9-2.1c-2.7-1.6-3.8-4.2-4.3-7.2a.5.5,0,0,1,.3-.6l1.8-1.8a6.9,6.9,0,0,0,4.8,3.1c3.5.6,5.3,2.3,6,5.7a7.9,7.9,0,0,0,.6,2.2,6.7,6.7,0,0,0,5.4,3.9,6.6,6.6,0,0,1,5.8,5.9,7,7,0,0,0,5.8,6,8.7,8.7,0,0,1,2.2.5c1.4.7,1.6,1.8.6,2.9a11.9,11.9,0,0,0-1.9,2c-1.7-2.1-3.6-4-6.3-4.7l-1.6-.5a8.2,8.2,0,0,1-6.8-6.8,12.2,12.2,0,0,0-5.3-7.9C63.5,19,63,19.1,62.1,20.1Z" style="fill:#e87e86"/><path d="M84.6,39.6a11.9,11.9,0,0,1,1.9-2c1-1.1.8-2.2-.6-2.9a8.7,8.7,0,0,0-2.2-.5,7,7,0,0,1-5.8-6,6.6,6.6,0,0,0-5.8-5.9,6.7,6.7,0,0,1-5.4-3.9,7.9,7.9,0,0,1-.6-2.2c-.7-3.4-2.5-5.1-6-5.7a6.9,6.9,0,0,1-4.8-3.1l4.6-4.5a7.9,7.9,0,0,1,.8,2.6,7.8,7.8,0,0,0,6,6.2l1.1.3a5.3,5.3,0,0,1,4.6,4.6,8.2,8.2,0,0,0,2.2,4.7A8,8,0,0,0,79,23.7a5.6,5.6,0,0,1,5.3,5.1,8,8,0,0,0,6.9,6.8c.7.1,1.7,0,1.9.7s-.8,1-1.3,1.5L86.7,43c-.2.1-.3.4-.7.4A17.4,17.4,0,0,0,84.6,39.6Z" style="fill:#e2636d"/><path d="M38.2,23.7a27.3,27.3,0,0,0,2.3-2.5c.5-.5.7-.4,1.2,0l9.1,9.2,24,23.9c.5.6.6.8,0,1.4s-3.2,3.1-4.7,4.7-.7.5-1.1.1a8.4,8.4,0,0,0-2.4-2.2A4,4,0,0,0,68,55.6c.8.1,1.6.1,2-.8s-.1-1.5-.7-2.1l-26-25.9a1.6,1.6,0,0,0-2.2-.6c-.5-.2-.7-.7-1.1-1S39,23.9,38.2,23.7Z" style="fill:#aecbcf"/><path d="M38.2,23.7c.8.2,1.2,1,1.8,1.5s.6.8,1.1,1-.9,1.6.2,2.6L67.4,55l.6.6a4,4,0,0,1-1.4,2.7,2.8,2.8,0,0,0-1.3.4A22,22,0,0,1,62.7,56a1.7,1.7,0,0,0-.4-2.4L35.9,27.3c-.6-.6-.6-.9,0-1.4Z" style="fill:#dee8ed"/><path d="M74.3,49.7c2.2-2,4.3-4.3,6.5-6.4a7.7,7.7,0,0,1,1.6-1.5,17.6,17.6,0,0,1,1.2,3.9.5.5,0,0,1-.3.6c-1.9,2-3.9,4-5.9,5.9-.2.3-.4.4-.7,0Z" style="fill:#fdf6b0"/><path d="M15.7,82a5.2,5.2,0,0,1-3.1,7.8,5.3,5.3,0,0,1-3.7-.5,5.2,5.2,0,0,1-1-8.4A5.3,5.3,0,0,1,15.7,82Zm-4.4,5a2.3,2.3,0,1,0-2.2-2.2A2.2,2.2,0,0,0,11.3,87Z" style="fill:#040303"/><path d="M68,55.6l-.6-.6L41.3,28.8c-1.1-1-1.1-1.5-.2-2.6a1.6,1.6,0,0,1,2.2.6l26,25.9c.6.6,1.1,1.2.7,2.1S68.8,55.7,68,55.6Z" style="fill:#030303"/></g></g></svg>