<svg id="Layer_1" data-name="Layer 1" xmlns="http://www.w3.org/2000/svg" viewBox="0 0 100 100"><path d="M98.1,33.1V87.2a8.3,8.3,0,0,1-8.3,8.3H10.2a8.3,8.3,0,0,1-8.3-8.3V33a9.9,9.9,0,0,1,5.6-9L45.6,5.5a10.4,10.4,0,0,1,8.8,0L92.5,24.1A9.9,9.9,0,0,1,98.1,33.1Z" style="fill:#fada86"/><path d="M98.1,38.3V87.2a8.3,8.3,0,0,1-8.3,8.3H10.2a8.3,8.3,0,0,1-8.3-8.3V38.3L45.6,59.6a10.4,10.4,0,0,0,8.8,0L98.1,38.3Z" style="fill:#ffec8f"/><path d="M90.4,31.8c-22.6-2.1-45.1,2.7-64.5,16a3.8,3.8,0,0,1-4,.2l-20-9.7V33a9.9,9.9,0,0,1,5.6-9L45.6,5.5a10.4,10.4,0,0,1,8.8,0L92.6,24.2c4,1.9,2.3,8-2.2,7.6Z" style="fill:#ffe39e"/><path d="M59.6,57,95.7,93.1a8.3,8.3,0,0,1-5.9,2.4H10.2a8.3,8.3,0,0,1-5.9-2.4L40.4,57l5.2,2.6a10.4,10.4,0,0,0,8.8,0Z" style="fill:#ffe773"/><path d="M93.4,22.4,55.2,3.8a11.9,11.9,0,0,0-10.4,0L6.7,22.4A11.7,11.7,0,0,0,0,33V87.2A10.2,10.2,0,0,0,10.2,97.4H89.8A10.2,10.2,0,0,0,100,87.2V33.1a12.1,12.1,0,0,0-6.6-10.7Zm2.9,64.8a6.4,6.4,0,0,1-6.5,6.4H10.2a6.4,6.4,0,0,1-6.5-6.4V41.3l41.1,20a11.9,11.9,0,0,0,10.4,0L85,46.7a1.7,1.7,0,0,0,.9-2.4,1.8,1.8,0,0,0-2.5-.9L53.5,57.9a7.8,7.8,0,0,1-7,0L3.7,37.1V33a8.2,8.2,0,0,1,4.6-7.3L46.5,7.2a7.8,7.8,0,0,1,7,0L91.7,25.8a8.1,8.1,0,0,1,4.6,7.3ZM31.8,65.6a1.9,1.9,0,0,1,0,2.6L13.6,86.4a1.7,1.7,0,0,1-1.3.5A1.8,1.8,0,0,1,11,83.8L29.2,65.6a1.7,1.7,0,0,1,2.6,0ZM89,83.8a1.7,1.7,0,0,1,0,2.6,1.9,1.9,0,0,1-2.6,0L68.2,68.2a1.9,1.9,0,0,1,0-2.6,1.7,1.7,0,0,1,2.6,0Z"/></svg>