<svg id="Layer_1" data-name="Layer 1" xmlns="http://www.w3.org/2000/svg" viewBox="0 0 100 100"><path d="M57.5,50,7.3,98.3a8.6,8.6,0,0,1-3.7-7.1V8.8A8.6,8.6,0,0,1,7.3,1.7Z" style="fill:#2196f3"/><path d="M75.1,33.1,57.5,50,7.3,1.7l.6-.5a8.7,8.7,0,0,1,8.7-.1Z" style="fill:#4caf50"/><path d="M96.4,50a8.6,8.6,0,0,1-4.6,7.7L75.1,66.9,57.5,50,75.1,33.1l16.7,9.2A8.6,8.6,0,0,1,96.4,50Z" style="fill:#ffc107"/><path d="M75.1,66.9l-58.5,32a9,9,0,0,1-8.7-.1l-.6-.5L57.5,50Z" style="fill:#f44336"/><path d="M12.4,100a8.7,8.7,0,0,1-8.8-8.8V8.8A8.7,8.7,0,0,1,12.4,0a9.1,9.1,0,0,1,4.2,1.1L91.8,42.3a8.6,8.6,0,0,1,3.5,11.9,8.4,8.4,0,0,1-3.5,3.5L16.6,98.9A8.8,8.8,0,0,1,12.4,100Zm0-95.5A4.4,4.4,0,0,0,8.1,8.8V91.2a4.2,4.2,0,0,0,4.3,4.2,3.5,3.5,0,0,0,2-.5L89.7,53.7A4.1,4.1,0,0,0,91.3,48a3.3,3.3,0,0,0-1.6-1.7L14.4,5.1a3.6,3.6,0,0,0-2-.6Z"/><path d="M71.7,65.9a2.3,2.3,0,0,1-1.6-.6L8.8,6.2A2.3,2.3,0,0,1,12,3L73.2,62a2.2,2.2,0,0,1,.1,3.2,2.4,2.4,0,0,1-1.6.7Z"/><path d="M10.4,97.7a2.3,2.3,0,0,1-2.3-2.3,2.4,2.4,0,0,1,.7-1.6L70.1,34.7a2.3,2.3,0,0,1,3.2.1,2.2,2.2,0,0,1-.1,3.2L12,97A2.6,2.6,0,0,1,10.4,97.7Z"/></svg>