<svg id="Layer_1" data-name="Layer 1" xmlns="http://www.w3.org/2000/svg" viewBox="0 0 100 100"><path d="M77.6,1.8H22.4A11.6,11.6,0,0,0,10.9,13.4V86.6A11.6,11.6,0,0,0,22.4,98.2H77.6A11.6,11.6,0,0,0,89.1,86.6V13.4A11.6,11.6,0,0,0,77.6,1.8Z" style="fill:#3e81c8"/><path d="M77.6,10.9H22.4A2.5,2.5,0,0,0,20,13.4V86.6a2.5,2.5,0,0,0,2.4,2.5H77.6A2.5,2.5,0,0,0,80,86.6V13.4A2.5,2.5,0,0,0,77.6,10.9Z" style="fill:#efefef"/><polygon points="62.5 42.5 62.5 34.6 37.5 34.6 37.5 42.5 46 42.5 46 73.5 37.5 73.5 37.5 81.4 62.5 81.4 62.5 73.5 54 73.5 54 42.5 62.5 42.5" style="fill:#f8a805"/><path d="M50,17.8a5.1,5.1,0,1,0,5.1,5.1A5.1,5.1,0,0,0,50,17.8Z" style="fill:#f8a805"/><path d="M77.6,0H22.4A13.4,13.4,0,0,0,9.1,13.4V86.6A13.4,13.4,0,0,0,22.4,100H77.6A13.4,13.4,0,0,0,90.9,86.6V13.4A13.4,13.4,0,0,0,77.6,0Zm9.7,86.6a9.8,9.8,0,0,1-9.7,9.8H22.4a9.8,9.8,0,0,1-9.7-9.8V13.4a9.8,9.8,0,0,1,9.7-9.8H77.6a9.8,9.8,0,0,1,9.7,9.8Z"/><path d="M77.6,9.1H22.4a4.3,4.3,0,0,0-4.3,4.3V86.6a4.3,4.3,0,0,0,4.3,4.3H77.6a4.3,4.3,0,0,0,4.3-4.3V13.4A4.3,4.3,0,0,0,77.6,9.1Zm.6,77.5a.7.7,0,0,1-.6.7H22.4a.7.7,0,0,1-.6-.7V13.4a.7.7,0,0,1,.6-.7H77.6a.7.7,0,0,1,.6.7V86.6Z"/><path d="M62.5,44.3a1.8,1.8,0,0,0,1.8-1.8V34.6a1.8,1.8,0,0,0-1.8-1.8h-25a1.8,1.8,0,0,0-1.8,1.8v7.9a1.8,1.8,0,0,0,1.8,1.8h6.7V71.7H37.5a1.8,1.8,0,0,0-1.8,1.8v7.9a1.8,1.8,0,0,0,1.8,1.8h25a1.8,1.8,0,0,0,1.8-1.8V73.5a1.8,1.8,0,0,0-1.8-1.8H55.8V44.3ZM54,75.3h6.7v4.3H39.3V75.3H46a1.8,1.8,0,0,0,1.8-1.8v-31A1.8,1.8,0,0,0,46,40.7H39.3V36.4H60.7v4.3H54a1.8,1.8,0,0,0-1.8,1.8v31A1.8,1.8,0,0,0,54,75.3Z"/><path d="M50,16a6.9,6.9,0,1,0,6.9,6.9A6.9,6.9,0,0,0,50,16Zm0,10.2a3.3,3.3,0,1,1,3.3-3.3A3.3,3.3,0,0,1,50,26.2Z"/></svg>