<svg id="Layer_1" data-name="Layer 1" xmlns="http://www.w3.org/2000/svg" viewBox="0 0 100 100"><g id="surface1"><path d="M90.8,13.9h-30v6H87.7l-1.9,7.6a25.8,25.8,0,0,1-19,18.7l-6,.6v6.1a31.9,31.9,0,0,0,30.8-24l2.7-10.6A3.6,3.6,0,0,0,90.8,13.9Z" style="fill:#f5b556"/><path d="M9.2,13.9h30v6H12.3l1.9,7.6a25.8,25.8,0,0,0,19,18.7l6,.6v6.1a31.9,31.9,0,0,1-30.8-24L5.7,18.3A3.6,3.6,0,0,1,9.2,13.9Z" style="fill:#f5b556"/><path d="M54.5,55.2h-9A36.6,36.6,0,0,1,35.3,81.9H64.7A36.6,36.6,0,0,1,54.5,55.2Z" style="fill:#fed066"/><path d="M54.5,55.2H50s-5.1,17.7,4.6,26.7H64.7A36.6,36.6,0,0,1,54.5,55.2Z" style="fill:#f5b556"/><path d="M25.2,1.5V22.3c0,20.9,14,32.8,21,37.4a7,7,0,0,0,7.6,0c7-4.6,21-16.5,21-37.4V1.5Z" style="fill:#fed066"/><path d="M74.8,1.5H64.7V22.3c0,19.7-12.5,31.4-19.8,36.5l1.3.9a7,7,0,0,0,7.6,0c7-4.6,21-16.5,21-37.4Z" style="fill:#f5b556"/><path d="M76.9,8.6H23.1a1.8,1.8,0,0,1-1.8-1.7V3.2a1.7,1.7,0,0,1,1.8-1.7H76.9a1.7,1.7,0,0,1,1.8,1.7V6.9A1.8,1.8,0,0,1,76.9,8.6Z" style="fill:#f5b556"/><path d="M76.9,1.5H68.5V8.6h8.4a1.8,1.8,0,0,0,1.8-1.7V3.2A1.7,1.7,0,0,0,76.9,1.5Z" style="fill:#e8a246"/><path d="M70.1,98.5H29.9A1.5,1.5,0,0,1,28.4,97V81.1a1.5,1.5,0,0,1,1.5-1.5H70.1a1.5,1.5,0,0,1,1.5,1.5V97A1.5,1.5,0,0,1,70.1,98.5Z" style="fill:#3c5666"/><path d="M70.1,79.6H61.4V98.5h8.7A1.5,1.5,0,0,0,71.6,97V81.1A1.5,1.5,0,0,0,70.1,79.6Z" style="fill:#194451"/><path d="M35.2,91.4V86.7c0-.2.1-.4.3-.4h29c.2,0,.3.2.3.4v4.7c0,.2-.1.4-.3.4h-29C35.3,91.8,35.2,91.6,35.2,91.4Z" style="fill:#f2f2f2"/><path d="M50.5,15.7l3.1,9.6a.5.5,0,0,0,.5.3H64.2a.6.6,0,0,1,.3,1l-8.2,5.9c-.2.1-.2.4-.2.6l3.1,9.5c.2.5-.3.9-.8.6l-8.1-5.9h-.6l-8.1,5.9c-.5.3-1-.1-.8-.6l3.1-9.5c0-.2,0-.5-.2-.6l-8.2-5.9a.6.6,0,0,1,.3-1H45.9a.5.5,0,0,0,.5-.3l3.1-9.6A.5.5,0,0,1,50.5,15.7Z" style="fill:#f2f2f2"/><path d="M66,25.5a1.8,1.8,0,0,0-1.8-1.3H54.8l-2.9-8.9a2,2,0,0,0-3.8,0l-2.9,8.9H35.8A1.8,1.8,0,0,0,34,25.5a2,2,0,0,0,.7,2.3l7.6,5.5-2.9,8.9a1.9,1.9,0,0,0,.7,2.2,2,2,0,0,0,2.3,0L50,38.9l7.6,5.5a1.6,1.6,0,0,0,1.2.4,1.5,1.5,0,0,0,1.1-.4,1.9,1.9,0,0,0,.7-2.2l-2.9-8.9,7.6-5.5A2,2,0,0,0,66,25.5ZM55.5,31.3a2.1,2.1,0,0,0-.8,2.2L57,40.3l-5.8-4.2a2.1,2.1,0,0,0-2.4,0L43,40.3l2.3-6.8a2.1,2.1,0,0,0-.8-2.2l-5.7-4.2h7.1a1.9,1.9,0,0,0,1.9-1.4L50,18.9l2.2,6.8a1.9,1.9,0,0,0,1.9,1.4h7.1Z"/><path d="M94.8,14.4a4.9,4.9,0,0,0-4-2H76.3V10.1h.6a3.2,3.2,0,0,0,3.2-3.2V3.2A3.2,3.2,0,0,0,76.9,0H23.1a3.2,3.2,0,0,0-3.2,3.2V6.9a3.2,3.2,0,0,0,3.2,3.2h.6v2.3H9.2a4.9,4.9,0,0,0-4,2,4.8,4.8,0,0,0-.9,4.3L7,29.3A33.5,33.5,0,0,0,18.3,47a32.9,32.9,0,0,0,19,7.3,50.6,50.6,0,0,0,6.6,5.6,35.6,35.6,0,0,1-7.3,18.2H29.9a3,3,0,0,0-2.9,3V97a2.9,2.9,0,0,0,2.9,3H70.1A2.9,2.9,0,0,0,73,97V81.1a3,3,0,0,0-2.9-3H63.4a35.6,35.6,0,0,1-7.3-18.2,50.6,50.6,0,0,0,6.6-5.6,32.9,32.9,0,0,0,19-7.3A33.5,33.5,0,0,0,93,29.3l2.7-10.6A4.8,4.8,0,0,0,94.8,14.4ZM76.3,22.3v-.9h9.5l-1.4,5.7a24.3,24.3,0,0,1-13.3,16A42.5,42.5,0,0,0,76.3,22.3ZM28.9,43.1a24.3,24.3,0,0,1-13.3-16l-1.4-5.7h9.5v.9A42.5,42.5,0,0,0,28.9,43.1Zm-8.8,1.6A30.2,30.2,0,0,1,9.8,28.6L7.1,18a2.3,2.3,0,0,1,.4-1.8,2.1,2.1,0,0,1,1.7-.8H23.7v3H12.3a1.6,1.6,0,0,0-1.4,1.9l1.9,7.5A27.2,27.2,0,0,0,31.4,47.2l.5.7A18.3,18.3,0,0,0,34.3,51,30.4,30.4,0,0,1,20.1,44.7Zm50,36.4h0V97H29.9V81.1H70.1Zm-10.4-3H40.3a39,39,0,0,0,6.4-16.5,8.1,8.1,0,0,0,6.6,0A39,39,0,0,0,59.7,78.1ZM61,51.8h0a44.7,44.7,0,0,1-8,6.5,5.1,5.1,0,0,1-6,0,44.7,44.7,0,0,1-8-6.5h0a38.1,38.1,0,0,1-4.8-5.6,40.7,40.7,0,0,1-7.6-23.9V10.1h3.9a1.5,1.5,0,0,0,1.4-1.5,1.5,1.5,0,0,0-1.4-1.5H23.1c-.2,0-.3-.1-.3-.2V3.2a.3.3,0,0,1,.3-.3H76.9a.3.3,0,0,1,.3.3V6.9c0,.1-.1.2-.3.2H37.3a1.5,1.5,0,0,0,0,3H73.4V22.3a40.7,40.7,0,0,1-7.6,23.9A38.1,38.1,0,0,1,61,51.8ZM92.9,18,90.2,28.6A30.1,30.1,0,0,1,65.7,51a18.3,18.3,0,0,0,2.4-3.1l.5-.7A27.2,27.2,0,0,0,87.2,27.8l1.9-7.5a1.6,1.6,0,0,0-1.4-1.9H76.3v-3H90.8a2.1,2.1,0,0,1,1.7.8A2.3,2.3,0,0,1,92.9,18Z"/><path d="M33.7,86.7v4.7a1.8,1.8,0,0,0,1.8,1.9h29a1.8,1.8,0,0,0,1.8-1.9V86.7a1.8,1.8,0,0,0-1.8-1.8H61.4a1.5,1.5,0,0,0-1.5,1.4,1.5,1.5,0,0,0,1.5,1.5h2v2.6H36.6V87.8h18A1.5,1.5,0,0,0,56,86.3a1.4,1.4,0,0,0-1.4-1.4H35.5A1.8,1.8,0,0,0,33.7,86.7Z"/></g></svg>