<svg xmlns="http://www.w3.org/2000/svg" viewBox="0 0 98 94.9"><g id="Layer_2" data-name="Layer 2"><g id="Layer_1-2" data-name="Layer 1"><path d="M0,39.4a3.7,3.7,0,0,0,.5-1.8,13.6,13.6,0,0,1,15.8-9.7c.9.2,1.2,0,1.6-.9A33.2,33.2,0,0,1,40.4,7.3a3.8,3.8,0,0,0,1.5-.9A26.5,26.5,0,0,1,51,.3c1.6-.6,2.2-.3,2.6,1.3L54.5,5c.1.5.2.6.7.4l5.1-2.1c1.5-.6,2.4,0,2.4,1.6s.1,2,0,3a1.4,1.4,0,0,0,1,1.6A33.9,33.9,0,0,1,79.8,26.2c.3.6.4,1.4.8,1.7s1.2-.1,1.8-.2a13.7,13.7,0,0,1,6.2,26.6c-.6.2-.8.4-.6,1.1a27.4,27.4,0,0,1-4.5,23C78.1,86,70.6,90.6,61.7,93.2a46.5,46.5,0,0,1-19.3,1.2,43.1,43.1,0,0,1-18-6.6C16.8,82.8,11.5,76.1,9.7,67A26.3,26.3,0,0,1,10,55.5c.2-.7.1-1-.6-1.2A13.5,13.5,0,0,1,.5,44.8,2.4,2.4,0,0,0,0,43.4Zm82.2-5.5c.2,2,.5,4,.5,6a16.7,16.7,0,0,0,2.8,8.9c.3.8.7,1.5,1,2.2s.6.7,1.2.5a10.8,10.8,0,0,0-5.1-20.9c-.8.1-1.3.3-.9,1.2A16,16,0,0,1,82.2,33.9Zm-66.4,0,.6-2.3c.2-.6,0-.8-.6-.9a9.9,9.9,0,0,0-4.2,0A10.8,10.8,0,0,0,3,42.7a11.1,11.1,0,0,0,7.4,8.9c.5.1.9.1,1.1-.5s.7-1.5,1-2.3A20.6,20.6,0,0,0,15,42.9C15.5,39.9,15.3,36.9,15.8,33.9ZM35,89.7a33.6,33.6,0,0,0,7.6,1.8,45.4,45.4,0,0,0,18.7-1.2,37,37,0,0,0,17-10.1,26.9,26.9,0,0,0,7.6-16.6,24.8,24.8,0,0,0-3.2-13.9,23,23,0,0,1-2.5-6.3,33.9,33.9,0,0,1-.5-6.4A30.7,30.7,0,0,0,61.2,11.5a1.8,1.8,0,0,1-1.3-2.1,13.4,13.4,0,0,1,0-2c0-.7-.2-.8-.8-.5L54.6,8.7c-1.3.5-1.8.3-2.4-.9s-.7-2.5-.9-3.8-.4-.6-.9-.3a24.7,24.7,0,0,0-6.9,5.1,3.3,3.3,0,0,1-1.9,1.1,30.1,30.1,0,0,0-14.2,8,30.3,30.3,0,0,0-9.2,21.7,21.6,21.6,0,0,1-2.7,9.9,24.7,24.7,0,0,0-3.3,14.8,26.1,26.1,0,0,0,4.7,12.4A33.5,33.5,0,0,0,28.3,86.8,28.3,28.3,0,0,0,35,89.7Z" style="fill:#030303"/><path d="M52.2,7.8c.6,1.2,1.1,1.4,2.4.9l4.5-1.8c.6-.3.8-.2.8.5a13.4,13.4,0,0,0,0,2,1.8,1.8,0,0,0,1.3,2.1A30.7,30.7,0,0,1,79.7,37a33.9,33.9,0,0,0,.5,6.4,23,23,0,0,0,2.5,6.3,24.8,24.8,0,0,1,3.2,13.9,26.9,26.9,0,0,1-7.6,16.6,37,37,0,0,1-17,10.1,45.4,45.4,0,0,1-18.7,1.2A33.6,33.6,0,0,1,35,89.7c.1-.4-.2-.6-.4-.9a37,37,0,0,1-2.1-3.3A7.5,7.5,0,0,1,31,82.4a26.5,26.5,0,0,0,15.6,6.2c7.9.6,15.1-1.4,21-6.8s7.5-12.2,4.5-19.3c-1.1-2.7-.5-5,1.2-7.3A15,15,0,0,0,73.6,37c-.8-1.3-1.1-1.4-2.5-1s-1.5-1.3-2.4-1.8a1.6,1.6,0,0,0-.8-2.1,16.2,16.2,0,0,0-6.5-1.4,15.6,15.6,0,0,0-10.3,3.8,2.9,2.9,0,0,1-4.2,0l-.6-.4a15.5,15.5,0,0,0-11.1-3.4,15.6,15.6,0,0,1,1-3.7A36.7,36.7,0,0,1,48.6,9.9,8.8,8.8,0,0,1,52.2,7.8Z" style="fill:#ad6d59"/><path d="M31,82.4a7.5,7.5,0,0,0,1.5,3.1,37,37,0,0,0,2.1,3.3c.2.3.5.5.4.9a28.3,28.3,0,0,1-6.7-2.9A33.5,33.5,0,0,1,16.9,76.7a26.1,26.1,0,0,1-4.7-12.4,24.7,24.7,0,0,1,3.3-14.8,21.6,21.6,0,0,0,2.7-9.9,30.3,30.3,0,0,1,9.2-21.7,30.1,30.1,0,0,1,14.2-8,3.3,3.3,0,0,0,1.9-1.1,24.7,24.7,0,0,1,6.9-5.1c.5-.3.7-.3.9.3s.6,2.5.9,3.8a8.8,8.8,0,0,0-3.6,2.1A36.7,36.7,0,0,0,36.2,27a15.6,15.6,0,0,0-1,3.7,16.9,16.9,0,0,0-5,1.4,15.3,15.3,0,0,0-8.4,16.8,14.6,14.6,0,0,0,2.9,6.3,7.1,7.1,0,0,1,1.7,5.2,12.3,12.3,0,0,1-.8,2.9,15.6,15.6,0,0,0-.4,10A19.6,19.6,0,0,0,31,82.4Z" style="fill:#95594f"/><path d="M15.8,33.9c-.5,3-.3,6-.8,9a20.6,20.6,0,0,1-2.5,5.9,7.4,7.4,0,0,1-6.3-6.2,7.6,7.6,0,0,1,4.2-8.2A8.3,8.3,0,0,1,15.8,33.9Z" style="fill:#e9c79e"/><path d="M85.5,48.8a16.7,16.7,0,0,1-2.8-8.9c0-2-.3-4-.5-6h.6a7.6,7.6,0,1,1,2.7,15Z" style="fill:#e9c79e"/><path d="M15.8,33.9a8.3,8.3,0,0,0-5.4.5,7.6,7.6,0,0,0-4.2,8.2,7.4,7.4,0,0,0,6.3,6.2c-.3.8-.7,1.5-1,2.3s-.6.6-1.1.5A11.1,11.1,0,0,1,3,42.7a10.8,10.8,0,0,1,8.6-12,9.9,9.9,0,0,1,4.2,0c.6.1.8.3.6.9Z" style="fill:#94594f"/><path d="M85.5,48.8a7.6,7.6,0,1,0-2.7-15h-.6a16,16,0,0,0-.5-2.1c-.4-.9.1-1.1.9-1.2a10.8,10.8,0,0,1,5.1,20.9c-.6.2-1,.2-1.2-.5S85.8,49.6,85.5,48.8Z" style="fill:#94594f"/><path d="M68.7,34.2c.9.5,1.5,1.4,2.4,1.8a2,2,0,0,0,.2,2.7,4.1,4.1,0,0,1,.7,1.1c2.5,4.7,2.3,9.4-1,13.7a9.5,9.5,0,0,0-1.5,10.1c2.5,6.1.4,12.3-4.2,16.4a23.1,23.1,0,0,1-14.2,5.8c-7.5.5-14.3-1.4-19.7-7.1-3.7-4.1-5-8.9-3.2-14.2a12.6,12.6,0,0,0,.8-7.4c.8-2.1,1.7-4.2,2.6-6.3a5.9,5.9,0,0,0,6.4.4c2.6-1.4,3.4-3.8,3.2-6.6,0-1.1-.4-1.5-1.5-1.6a5.9,5.9,0,0,0-3.1-3.1c-.1-1.2-.6-1.6-1.9-1.5h-.8c-.2-1.5.3-3,.4-4.5l.7-.2a12.4,12.4,0,0,1,9.8,2.8c2.8,2.4,5.5,2.4,8.3.1a12.3,12.3,0,0,1,13.3-1.9A1.8,1.8,0,0,0,68.7,34.2ZM67.2,43a5.1,5.1,0,0,0-3-3.1c-.1-1.1-.6-1.6-1.5-1.6a6.4,6.4,0,0,0-4.5,2.1c-1.5,1.8-1.5,3.9-1.4,6.1a6,6,0,0,0,7.5,5.2c3.6-1,4.9-4.1,4.5-7.5A1.3,1.3,0,0,0,67.2,43ZM49,66H34c-1.2,0-1.8.5-1.8,1.7a13.6,13.6,0,0,0,3.1,8.4c4.6,5.6,10.6,7.4,17.5,6.1s12.6-7.4,12.9-14.1c.1-1.6-.3-2.1-1.9-2.1Zm-6-9.2a1.3,1.3,0,0,0-1.4.9,1.2,1.2,0,0,0,.5,1.6L45.4,61a1.3,1.3,0,0,0,1.8-.6,1.4,1.4,0,0,0-.6-1.9,21,21,0,0,0-3-1.5A.8.8,0,0,0,43,56.8Zm9.3,4.3A14.9,14.9,0,0,0,56.2,59a1.1,1.1,0,0,0,.1-1.6,1.2,1.2,0,0,0-1.6-.5l-3.5,1.7c-.6.3-.6,1-.4,1.6A1.4,1.4,0,0,0,52.3,61.1Z" style="fill:#f7e8c6"/><path d="M29,57.1a12.6,12.6,0,0,1-.8,7.4c-1.8,5.3-.5,10.1,3.2,14.2,5.4,5.7,12.2,7.6,19.7,7.1A23.1,23.1,0,0,0,65.3,80c4.6-4.1,6.7-10.3,4.2-16.4A9.5,9.5,0,0,1,71,53.5c3.3-4.3,3.5-9,1-13.7a4.1,4.1,0,0,0-.7-1.1,2,2,0,0,1-.2-2.7c1.4-.4,1.7-.3,2.5,1a15,15,0,0,1-.3,18.2c-1.7,2.3-2.3,4.6-1.2,7.3,3,7.1.8,14.3-4.5,19.3s-13.1,7.4-21,6.8A26.5,26.5,0,0,1,31,82.4a19.6,19.6,0,0,1-5.8-9.1,15.6,15.6,0,0,1,.4-10,12.3,12.3,0,0,0,.8-2.9,7.1,7.1,0,0,0-1.7-5.2,14.6,14.6,0,0,1-2.9-6.3,15.3,15.3,0,0,1,8.4-16.8,16.9,16.9,0,0,1,5-1.4,15.5,15.5,0,0,1,11.1,3.4l.6.4a2.9,2.9,0,0,0,4.2,0,15.6,15.6,0,0,1,10.3-3.8,16.2,16.2,0,0,1,6.5,1.4,1.6,1.6,0,0,1,.8,2.1,1.8,1.8,0,0,1-2.3.5,12.3,12.3,0,0,0-13.3,1.9c-2.8,2.3-5.5,2.3-8.3-.1A12.4,12.4,0,0,0,35,33.7l-.7.2c-.1,0-.2-.1-.3,0A12.3,12.3,0,0,0,26.6,53,14.2,14.2,0,0,1,29,57.1Z" style="fill:#040302"/><path d="M49,66H63.8c1.6,0,2,.5,1.9,2.1-.3,6.7-5.5,12.7-12.9,14.1s-12.9-.5-17.5-6.1a13.6,13.6,0,0,1-3.1-8.4c0-1.2.6-1.7,1.8-1.7Zm0,2.9H36.1c-.7,0-.9.1-.7.9a12,12,0,0,0,3.5,6.2c.4.4.7.4.9-.1a14.9,14.9,0,0,1,1.5-2A10.6,10.6,0,0,1,58,75.6c.4.6.7.8,1.2.2a12.1,12.1,0,0,0,3.4-6c.2-.9,0-1-.8-1Zm1.8,10.7a14.7,14.7,0,0,0,4.9-1.4c.4-.2.3-.4.1-.7a7.3,7.3,0,0,0-6.9-4,7.3,7.3,0,0,0-6.7,4c-.3.5-.1.6.3.8a15.3,15.3,0,0,0,3.8,1.2c1.2.3,1.2.2,1.3-1.1v-.5a1.4,1.4,0,0,1,2.8,0V79C50.4,79.5,50.5,79.7,50.8,79.6Z" style="fill:#030202"/><path d="M29,57.1A14.2,14.2,0,0,0,26.6,53,12.3,12.3,0,0,1,34,33.9c.1-.1.2,0,.3,0-.1,1.5-.6,3-.4,4.5a7.6,7.6,0,0,0-3.2,2c-2.5,2.8-2.1,7.6.9,10.4C30.7,52.9,29.8,55,29,57.1Z" style="fill:#f2d9b2"/><path d="M67.2,43a1.3,1.3,0,0,1,1.6,1.2c.4,3.4-.9,6.5-4.5,7.5a6,6,0,0,1-7.5-5.2c-.1-2.2-.1-4.3,1.4-6.1a6.4,6.4,0,0,1,4.5-2.1c.9,0,1.4.5,1.5,1.6s-.6.9-.8,1.4a3.6,3.6,0,0,0-1.5.2,1.5,1.5,0,0,0-1.4.8,5.4,5.4,0,0,0-.3,5.2,3,3,0,0,0,5.3-.1,4.4,4.4,0,0,0,.5-2.8C66,43.7,66.4,43.1,67.2,43Z" style="fill:#030303"/><path d="M31.6,50.8c-3-2.8-3.4-7.6-.9-10.4a7.6,7.6,0,0,1,3.2-2h.8c1.3-.1,1.8.3,1.9,1.5s-.7.9-.8,1.4a2.6,2.6,0,0,0-1.5.2A2,2,0,0,0,32.4,43a5.3,5.3,0,0,0-.3,3.3A3.1,3.1,0,0,0,34.5,49a3.2,3.2,0,0,0,3.4-1.6c.6-.7.4-1.7.4-2.5s.3-1.8,1.4-1.9,1.5.5,1.5,1.6c.2,2.8-.6,5.2-3.2,6.6A5.9,5.9,0,0,1,31.6,50.8Z" style="fill:#030302"/><path d="M63.4,41.3c.2-.5.8-.8.8-1.4a5.1,5.1,0,0,1,3,3.1c-.8.1-1.2.7-1.2,1.6a4.4,4.4,0,0,1-.5,2.8c-1.9-.1-2.7-1-2.7-3,1.2-.3,1.8-1.1,1.5-2.1S63.6,41.6,63.4,41.3Z" style="fill:#5d535f"/><path d="M39.7,43c-1.1.1-1.4.9-1.4,1.9s.2,1.8-.4,2.5-2.7-.9-2.7-3q1.6-.4,1.5-1.8c-.1-.6-.6-.9-.9-1.3s.8-.7.8-1.4A5.9,5.9,0,0,1,39.7,43Z" style="fill:#5e5461"/><path d="M43,56.8a.8.8,0,0,1,.6.2,21,21,0,0,1,3,1.5,1.4,1.4,0,0,1,.6,1.9,1.3,1.3,0,0,1-1.8.6l-3.3-1.7a1.2,1.2,0,0,1-.5-1.6A1.3,1.3,0,0,1,43,56.8Z" style="fill:#040403"/><path d="M52.3,61.1a1.4,1.4,0,0,1-1.5-.9c-.2-.6-.2-1.3.4-1.6l3.5-1.7a1.2,1.2,0,0,1,1.6.5,1.1,1.1,0,0,1-.1,1.6A14.9,14.9,0,0,1,52.3,61.1Z" style="fill:#040403"/><path d="M49,68.9H61.8c.8,0,1,.1.8,1a12.1,12.1,0,0,1-3.4,6c-.5.6-.8.4-1.2-.2a10.6,10.6,0,0,0-16.7-1.8,14.9,14.9,0,0,0-1.5,2c-.2.5-.5.5-.9.1a12,12,0,0,1-3.5-6.2c-.2-.8,0-.9.7-.9Z" style="fill:#4a3e4d"/><path d="M50.8,79.6c-.3.1-.4-.1-.4-.6V77.9a1.4,1.4,0,0,0-2.8,0v.5c-.1,1.3-.1,1.4-1.3,1.1a15.3,15.3,0,0,1-3.8-1.2c-.4-.2-.6-.3-.3-.8a7.3,7.3,0,0,1,6.7-4,7.3,7.3,0,0,1,6.9,4c.2.3.3.5-.1.7A14.7,14.7,0,0,1,50.8,79.6Z" style="fill:#e1626c"/><path d="M62.8,44.4c0,2,.8,2.9,2.7,3a3,3,0,0,1-5.3.1,5.4,5.4,0,0,1,.3-5.2,1.5,1.5,0,0,1,1.4-.8C60.9,43,61.2,43.9,62.8,44.4Z" style="fill:#4b3f4e"/><path d="M35.2,44.4c0,2.1.8,3,2.7,3A3.2,3.2,0,0,1,34.5,49a3.1,3.1,0,0,1-2.4-2.7,5.3,5.3,0,0,1,.3-3.3,2,2,0,0,1,1.9-1.5C33.2,42.9,33.6,43.9,35.2,44.4Z" style="fill:#4a3e4d"/></g></g></svg>