<svg id="Layer_1" data-name="Layer 1" xmlns="http://www.w3.org/2000/svg" viewBox="0 0 100 100"><g id="Page-1"><g id="_031---Like" data-name="031---Like"><rect id="Rectangle-path" x="1.7" y="41.8" width="30" height="53.33" rx="6.7" style="fill:#60a917"/><path id="Shape" d="M25,41.8H20a6.6,6.6,0,0,1,6.7,6.6v40A6.7,6.7,0,0,1,20,95.1h5a6.7,6.7,0,0,0,6.7-6.7v-40A6.6,6.6,0,0,0,25,41.8Z" style="fill:#549414"/><circle id="Oval" cx="16.7" cy="51.8" r="3.3" style="fill:#ffdc00"/><path id="Shape-2" data-name="Shape" d="M91.7,55.1H88.3a6.7,6.7,0,1,1,0,13.3H85a6.7,6.7,0,1,1,0,13.4H80a6.6,6.6,0,0,1,6.7,6.6A6.7,6.7,0,0,1,80,95.1H53.3A13.4,13.4,0,0,1,40,81.8V46.1a11.5,11.5,0,0,1,2.7-7.5C47,33.4,55,22.9,55,16.8V8.3a3.3,3.3,0,0,1,1.1-2.5,3.3,3.3,0,0,1,2.7-.9c3.9.5,9.5,3.3,9.5,15.2a31.5,31.5,0,0,1-2.8,12.1,6.7,6.7,0,0,0,6,9.6H91.7a6.6,6.6,0,0,1,6.6,6.6A6.7,6.7,0,0,1,91.7,55.1Z" style="fill:#ffe0b2"/><path id="Shape-3" data-name="Shape" d="M81.7,88.4A6.8,6.8,0,0,1,75,95.1h5a6.7,6.7,0,0,0,6.7-6.7A6.6,6.6,0,0,0,80,81.8H75A6.6,6.6,0,0,1,81.7,88.4Z" style="fill:#dfc49c"/><path id="Shape-4" data-name="Shape" d="M63.3,20.1a31.5,31.5,0,0,1-2.8,12.1,6.7,6.7,0,0,0,6,9.6h5a6.7,6.7,0,0,1-6-9.6,31.5,31.5,0,0,0,2.8-12.1c0-11.9-5.6-14.7-9.5-15.2a3.7,3.7,0,0,0-2.5.7C59.8,6.9,63.3,10.6,63.3,20.1Z" style="fill:#dfc49c"/><path id="Shape-5" data-name="Shape" d="M96.4,53.1a6.4,6.4,0,0,0,1.4-7.2,6.5,6.5,0,0,0-6.1-4.1h-5a6.6,6.6,0,0,1,6.6,6.6,6.7,6.7,0,0,1-6.6,6.7H83.3a6.7,6.7,0,1,1,0,13.3H80a6.7,6.7,0,1,1,0,13.4h5a6.7,6.7,0,1,0,0-13.4h3.3a6.7,6.7,0,1,0,0-13.3h3.4A6.7,6.7,0,0,0,96.4,53.1Z" style="fill:#dfc49c"/><path id="Shape-6" data-name="Shape" d="M8.3,80.1a1.7,1.7,0,0,1-1.6-1.7v-10a1.6,1.6,0,0,1,1.6-1.6A1.6,1.6,0,0,1,10,68.4v10A1.7,1.7,0,0,1,8.3,80.1Z" style="fill:#f5f5f5"/><path id="Shape-7" data-name="Shape" d="M8.3,88.4a1.6,1.6,0,0,1-1.6-1.6V85.1a1.7,1.7,0,0,1,1.6-1.7A1.7,1.7,0,0,1,10,85.1v1.7A1.6,1.6,0,0,1,8.3,88.4Z" style="fill:#f5f5f5"/><path id="Shape-8" data-name="Shape" d="M46.7,85.1A1.7,1.7,0,0,1,45,83.4V80.1a1.7,1.7,0,0,1,1.7-1.7,1.7,1.7,0,0,1,1.6,1.7v3.3A1.7,1.7,0,0,1,46.7,85.1Z" style="fill:#f5f5f5"/><path id="Shape-9" data-name="Shape" d="M46.7,75.1A1.7,1.7,0,0,1,45,73.4V60.1a1.7,1.7,0,0,1,1.7-1.7,1.7,1.7,0,0,1,1.6,1.7V73.4A1.7,1.7,0,0,1,46.7,75.1Z" style="fill:#f5f5f5"/><path id="Shape-10" data-name="Shape" d="M8.3,96.8H25a8.4,8.4,0,0,0,8.3-8.4v-40A8.3,8.3,0,0,0,25,40.1H8.3A8.3,8.3,0,0,0,0,48.4v40A8.4,8.4,0,0,0,8.3,96.8Zm-5-48.4a5.1,5.1,0,0,1,5-5H25a5,5,0,0,1,5,5v40a5,5,0,0,1-5,5H8.3a5,5,0,0,1-5-5Z"/><path id="Shape-11" data-name="Shape" d="M16.7,56.8a5.1,5.1,0,0,0,5-5,5,5,0,0,0-5-5,5,5,0,0,0-5,5A5,5,0,0,0,16.7,56.8Zm0-6.7a1.6,1.6,0,0,1,1.6,1.7,1.6,1.6,0,0,1-1.6,1.6A1.6,1.6,0,0,1,15,51.8,1.6,1.6,0,0,1,16.7,50.1Z"/><path id="Shape-12" data-name="Shape" d="M73.3,66.8H71.7A1.6,1.6,0,0,0,70,68.4a1.7,1.7,0,0,0,1.7,1.7h1.6A1.7,1.7,0,0,0,75,68.4,1.6,1.6,0,0,0,73.3,66.8Z"/><path id="Shape-13" data-name="Shape" d="M75,53.4H73.3a1.7,1.7,0,0,0,0,3.4H75a1.7,1.7,0,1,0,0-3.4Z"/><path id="Shape-14" data-name="Shape" d="M100,48.4a8.3,8.3,0,0,0-8.3-8.3H71.5a4.8,4.8,0,0,1-4.2-2.3,5,5,0,0,1-.3-4.9,35.2,35.2,0,0,0,3-12.8C70,6.6,63.1,3.8,58.9,3.3A4.7,4.7,0,0,0,55,4.5a5,5,0,0,0-1.7,3.8v8.5c0,4-4.3,11.6-11.9,20.8a13.3,13.3,0,0,0-3.1,8.5V81.8a15.2,15.2,0,0,0,15,15H80a8.4,8.4,0,0,0,6.6-13.5,8.6,8.6,0,0,0,6.3-5.5,8.2,8.2,0,0,0-1.7-8.2,8.6,8.6,0,0,0,5.2-5.8,8.4,8.4,0,0,0-1.8-7.6,8.4,8.4,0,0,0,5.4-7.8Zm-8.3,5h-10a1.7,1.7,0,0,0,0,3.4h6.6a5,5,0,0,1,5,5,5,5,0,0,1-5,5H80a1.7,1.7,0,0,0-1.7,1.6A1.8,1.8,0,0,0,80,70.1h5a5,5,0,0,1,0,10H73.3a1.6,1.6,0,0,0-1.6,1.7,1.6,1.6,0,0,0,1.6,1.6H80a5,5,0,0,1,5,5,5,5,0,0,1-5,5H53.3A11.6,11.6,0,0,1,41.7,81.8V46.1a10.3,10.3,0,0,1,2.2-6.4c5.8-7,12.8-16.7,12.8-22.9V8.3A1.9,1.9,0,0,1,57.2,7a1.5,1.5,0,0,1,1.1-.4h.3c5.3.6,8.1,5.3,8.1,13.5a31.3,31.3,0,0,1-2.8,11.5,8.4,8.4,0,0,0,.6,8,8.3,8.3,0,0,0,7,3.8H91.7a5.1,5.1,0,0,1,5,5,5,5,0,0,1-5,5Z"/></g></g></svg>