<svg xmlns="http://www.w3.org/2000/svg" viewBox="0 0 100 100"><g id="Layer_2" data-name="Layer 2"><g id="Layer_1-2" data-name="Layer 1"><path d="M50,70.8A20.8,20.8,0,1,1,70.8,50,20.8,20.8,0,0,1,50,70.8Zm0-35.4A14.6,14.6,0,1,0,64.6,50,14.7,14.7,0,0,0,50,35.4Z"/><path d="M90.8,40l-7.2-.9a47.1,47.1,0,0,0-2.1-5.2l4.4-5.7a5.7,5.7,0,0,0-.5-7.6l-6-6a5.7,5.7,0,0,0-7.6-.5l-5.7,4.5a30.1,30.1,0,0,0-5.2-2.2L60,9.2a5.7,5.7,0,0,0-5.7-5H45.7a5.7,5.7,0,0,0-5.7,5l-.9,7.2a47.1,47.1,0,0,0-5.2,2.1l-5.7-4.4a5.7,5.7,0,0,0-7.6.5l-6,6a5.7,5.7,0,0,0-.5,7.6l4.4,5.7a47.1,47.1,0,0,0-2.1,5.2L9.2,40a5.7,5.7,0,0,0-5,5.7v8.6a5.7,5.7,0,0,0,5,5.7l7.2.9a47.1,47.1,0,0,0,2.1,5.2l-4.4,5.7a5.7,5.7,0,0,0,.5,7.6l6,6a5.7,5.7,0,0,0,7.6.5l5.7-4.4a47.1,47.1,0,0,0,5.2,2.1l.9,7.2a5.7,5.7,0,0,0,5.7,5h8.6a5.7,5.7,0,0,0,5.7-5l.9-7.2a47.1,47.1,0,0,0,5.2-2.1l5.7,4.4a5.7,5.7,0,0,0,7.6-.5l6-6a5.7,5.7,0,0,0,.5-7.6l-4.4-5.7a47.1,47.1,0,0,0,2.1-5.2l7.2-.9a5.7,5.7,0,0,0,5-5.7V45.7A5.7,5.7,0,0,0,90.8,40ZM50,70.8A20.8,20.8,0,1,1,70.8,50,20.8,20.8,0,0,1,50,70.8Z" style="fill:#90a4ae"/><path d="M53.6,100H46.4a7.3,7.3,0,0,1-7.3-6.3L38,85.5a38.5,38.5,0,0,1-4.7-1.9l-6.5,5a7.3,7.3,0,0,1-9.6-.7l-5.1-5.1a7.3,7.3,0,0,1-.7-9.6l5-6.5A38.5,38.5,0,0,1,14.5,62L6.3,60.9A7.3,7.3,0,0,1,0,53.6V46.4a7.3,7.3,0,0,1,6.3-7.3L14.5,38a38.5,38.5,0,0,1,1.9-4.7l-5-6.5a7.3,7.3,0,0,1,.7-9.6l5.1-5.1a7.3,7.3,0,0,1,9.6-.7l6.5,5A38.5,38.5,0,0,1,38,14.5l1.1-8.2A7.3,7.3,0,0,1,46.4,0h7.2a7.3,7.3,0,0,1,7.3,6.3L62,14.5a38.5,38.5,0,0,1,4.7,1.9l6.5-5a7.3,7.3,0,0,1,9.6.7l5.1,5.1a7.3,7.3,0,0,1,.7,9.6l-5,6.5A38.5,38.5,0,0,1,85.5,38l8.2,1.1a7.3,7.3,0,0,1,6.3,7.3v7.2a7.3,7.3,0,0,1-6.3,7.3L85.5,62a38.5,38.5,0,0,1-1.9,4.7l5,6.5a7.3,7.3,0,0,1-.7,9.6l-5.1,5.1a7.3,7.3,0,0,1-9.6.7l-6.5-5A38.5,38.5,0,0,1,62,85.5l-1.1,8.2a7.3,7.3,0,0,1-7.3,6.3ZM33,76.8a3.2,3.2,0,0,1,1.6.4,34.1,34.1,0,0,0,7.1,2.9A3.2,3.2,0,0,1,44,82.7l1.3,10.1a1.1,1.1,0,0,0,1.1,1h7.2a1.1,1.1,0,0,0,1.1-1L56,82.7a3.2,3.2,0,0,1,2.3-2.6,34.1,34.1,0,0,0,7.1-2.9,3,3,0,0,1,3.5.2L77,83.6a1.1,1.1,0,0,0,1.4-.1l5.1-5.1a1.1,1.1,0,0,0,.1-1.4l-6.2-8.1a3,3,0,0,1-.2-3.5,34.1,34.1,0,0,0,2.9-7.1A3.2,3.2,0,0,1,82.7,56l10.1-1.3a1,1,0,0,0,.9-1.1V46.4a1,1,0,0,0-.9-1.1L82.7,44a3.2,3.2,0,0,1-2.6-2.3,34.1,34.1,0,0,0-2.9-7.1,3,3,0,0,1,.2-3.5L83.6,23a1.1,1.1,0,0,0-.1-1.4l-5.1-5.1a1.1,1.1,0,0,0-1.4-.1l-8.1,6.2a3,3,0,0,1-3.5.2,34.1,34.1,0,0,0-7.1-2.9A3.2,3.2,0,0,1,56,17.3L54.7,7.2a1,1,0,0,0-1.1-.9H46.4a1,1,0,0,0-1.1.9L44,17.3a3.2,3.2,0,0,1-2.3,2.6,34.1,34.1,0,0,0-7.1,2.9,3,3,0,0,1-3.5-.2L23,16.4a1.1,1.1,0,0,0-1.4.1l-5.1,5.1a1.1,1.1,0,0,0-.1,1.4l6.2,8.1a3,3,0,0,1,.2,3.5,34.1,34.1,0,0,0-2.9,7.1A3.2,3.2,0,0,1,17.3,44L7.2,45.3a1,1,0,0,0-.9,1.1v7.2a1,1,0,0,0,.9,1.1L17.3,56a3.2,3.2,0,0,1,2.6,2.3,34.1,34.1,0,0,0,2.9,7.1,3,3,0,0,1-.2,3.5L16.4,77a1.1,1.1,0,0,0,.1,1.4l5.1,5.1a1.1,1.1,0,0,0,1.4.1l8.1-6.2a3.3,3.3,0,0,1,1.9-.6Z"/></g></g></svg>